<?xml version="1.0" encoding="UTF-8"?>
<svg xmlns="http://www.w3.org/2000/svg" version="1.1" viewBox="0 0 64 80">
  <!-- Generator: Adobe Illustrator 28.6.0, SVG Export Plug-In . SVG Version: 1.2.0 Build 709)  -->
  <g>
    <g id="Layer_1">
      <g>
        <path d="M57.4,31.9c-2.4-9.2-9.8-16.6-19.1-18.9s-19.4.7-25.8,7.9c-7.9,8.8-8.9,22-2.5,32-.5,3.6-.9,7.2-1.4,10.8-.2,1.3,1.4,2.2,2.5,1.9,3.5-1,7.1-1.9,10.6-2.9,9.5,3.9,20.5,2.1,28.1-4.9,7.1-6.5,10-16.7,7.6-25.9ZM50.4,51.2c-6,8.8-17.8,12.1-27.5,7.7h-.1c-.4-.2-.9-.3-1.5-.2-2.8.8-5.6,1.5-8.4,2.3.3-2.4.6-4.7.9-7.1.1-.8.3-1.7-.1-2.5-.3-.5-.7-1-1-1.6-.7-1.2-1.3-2.5-1.8-3.8-1.6-4.6-1.7-9.7-.2-14.3,2.6-8.1,10-14.2,18.4-15.2,8.7-1.2,17.4,3,21.9,10.3,4.6,7.5,4.3,17.1-.6,24.4Z"/>
        <path d="M45.9,41.8l-4.5-3.5c-1.4-1.1-3.3-.9-4.5.3l-1.3,1.3c-1-.6-1.9-1.3-2.8-2.1-.8-.8-1.5-1.8-2.1-2.8l1.3-1.3c1.2-1.2,1.3-3.1.3-4.5l-3.5-4.6c-.7-1-1.8-1.6-3-1.6-1.2-.1-2.4.4-3.2,1.2l-3.9,3.9c-2.2,2.2-2.7,5.6-1.3,8.4,1.9,3.6,4.3,6.8,7.1,9.6s6.1,5.2,9.6,7.1c1.1.6,2.2.8,3.3.8,1.8,0,3.7-.7,5-2.1l3.9-3.9c.8-.8,1.3-2,1.2-3.2,0-1.2-.6-2.3-1.6-3ZM43.5,45.2l-3.9,3.9c-1,1-2.5,1.2-3.7.6-3.2-1.7-6.1-3.8-8.7-6.4-2.6-2.6-4.7-5.5-6.4-8.7-.6-1.2-.4-2.7.6-3.7l3.9-3.9h.1q.1,0,.1.1l3.2,4.2-1.3,1.2c-1,1-1.3,2.6-.6,3.9.8,1.6,1.9,3,3.1,4.2,1.2,1.2,2.6,2.3,4.2,3.1,1.3.7,2.8.4,3.8-.6l1.4-1.4,4.1,3.2s0,0,0,0c0,.1,0,.2,0,.2Z"/>
      </g>
    </g>
  </g>
</svg>