<?xml version="1.0" encoding="UTF-8"?>
<svg xmlns="http://www.w3.org/2000/svg" version="1.1" viewBox="0 0 90 112.5">
  <!-- Generator: Adobe Illustrator 28.6.0, SVG Export Plug-In . SVG Version: 1.2.0 Build 709)  -->
  <g>
    <g id="Layer_1">
      <path d="M88.9,37.6c0-.8-.4-1.6-1-2.1l-15.5-12.7v-8.6c0-1.5-1.2-2.7-2.7-2.7h-11.1L46.7,1.7c-1-.8-2.5-.8-3.5,0l-11.8,9.7h-12.1c-1.5,0-2.7,1.2-2.7,2.7h0v9.4l-14.6,11.9c-.6.5-1,1.3-1,2.1v42.6c0,4.8,3.9,8.7,8.7,8.7h70.4c4.8,0,8.7-3.9,8.7-8.7v-42.5h0c0,0,0,0,0,0ZM81.8,37.6l-9.4,7.7v-15.5l9.4,7.7ZM45,7.4l4.9,4h-9.8l4.9-4ZM66.9,16.9v32.9l-21.7,17.8-23.1-18.7V16.9h44.8ZM16.6,30.6v13.8l-8.5-6.9,8.5-6.9ZM80.2,83.4H9.8c-1.8,0-3.2-1.5-3.2-3.2v-36.9l36.9,29.9c1,.8,2.5.8,3.5,0l36.5-29.8v36.8c0,1.8-1.5,3.2-3.2,3.2ZM23.3,73.2c0,1.5-1.2,2.7-2.7,2.7h-7.4c-1.5,0-2.7-1.2-2.7-2.7,0-1.5,1.2-2.7,2.7-2.7h7.4c1.5,0,2.7,1.2,2.7,2.7Z"/>
    </g>
  </g>
</svg>