<?xml version="1.0" encoding="UTF-8"?>
<svg xmlns="http://www.w3.org/2000/svg" version="1.1" viewBox="0 0 110 135">
  <!-- Generator: Adobe Illustrator 28.6.0, SVG Export Plug-In . SVG Version: 1.2.0 Build 709)  -->
  <g>
    <g id="Layer_1">
      <path d="M66.2,43.2h-16l10.3-10.3c1.6-1.6,1.6-4.3,0-6-1.6-1.6-4.3-1.6-6,0l-17.5,17.5c-.8.8-1.2,1.9-1.2,3s.4,2.2,1.2,3l17.5,17.5c1.6,1.6,4.3,1.6,6,0s1.6-4.3,0-6l-10.3-10.3h16,0c6.1,0,11.7,3.3,14.8,8.5,3.1,5.3,3.1,11.8,0,17.1-3.1,5.3-8.7,8.5-14.8,8.5-.2,0-.3,0-.5,0-.2,0-.3,0-.5,0H22.5c-2.3,0-4.2,1.9-4.2,4.2s1.9,4.2,4.2,4.2h42.6c.2,0,.3,0,.5,0,.2,0,.3,0,.5,0,6.8,0,13.3-2.7,18.1-7.5,4.8-4.8,7.5-11.3,7.5-18.1s-2.7-13.3-7.5-18.1c-4.8-4.8-11.3-7.5-18.1-7.5h0Z"/>
    </g>
  </g>
</svg>